0
SECTION
2
HEADER
9
$INSUNITS
70
4
0
ENDSEC
0
SECTION
2
TABLES
0
TABLE
2
LTYPE
0
LTYPE
72
65
70
64
2
CONTINUOUS
3
______
73
0
40
0
0
ENDTAB
0
TABLE
2
LAYER
0
ENDTAB
0
ENDSEC
0
SECTION
2
ENTITIES
0
LINE
8
0
10
-14.68
20
-9.5
11
73.68
21
-9.5
0
LINE
8
0
10
73.68
20
-9.5
11
73.68
21
92.68
0
LINE
8
0
10
73.68
20
92.68
11
-14.68
21
92.68
0
LINE
8
0
10
-14.68
20
92.68
11
-14.68
21
-9.5
0
LINE
8
0
10
-7
20
-7
11
7
21
-7
0
LINE
8
0
10
7
20
-7
11
7
21
7
0
LINE
8
0
10
7
20
7
11
-7
21
7
0
LINE
8
0
10
-7
20
7
11
-7
21
-7
0
LINE
8
0
10
-7
20
12
11
7
21
12
0
LINE
8
0
10
7
20
12
11
7
21
26
0
LINE
8
0
10
7
20
26
11
-7
21
26
0
LINE
8
0
10
-7
20
26
11
-7
21
12
0
LINE
8
0
10
-7
20
31
11
7
21
31
0
LINE
8
0
10
7
20
31
11
7
21
45
0
LINE
8
0
10
7
20
45
11
-7
21
45
0
LINE
8
0
10
-7
20
45
11
-7
21
31
0
LINE
8
0
10
-7
20
50
11
7
21
50
0
LINE
8
0
10
7
20
50
11
7
21
64
0
LINE
8
0
10
7
20
64
11
-7
21
64
0
LINE
8
0
10
-7
20
64
11
-7
21
50
0
LINE
8
0
10
-7
20
69
11
7
21
69
0
LINE
8
0
10
7
20
69
11
7
21
83
0
LINE
8
0
10
7
20
83
11
-7
21
83
0
LINE
8
0
10
-7
20
83
11
-7
21
69
0
LINE
8
0
10
12
20
-7
11
26
21
-7
0
LINE
8
0
10
26
20
-7
11
26
21
7
0
LINE
8
0
10
26
20
7
11
12
21
7
0
LINE
8
0
10
12
20
7
11
12
21
-7
0
LINE
8
0
10
12
20
12
11
26
21
12
0
LINE
8
0
10
26
20
12
11
26
21
26
0
LINE
8
0
10
26
20
26
11
12
21
26
0
LINE
8
0
10
12
20
26
11
12
21
12
0
LINE
8
0
10
12
20
31
11
26
21
31
0
LINE
8
0
10
26
20
31
11
26
21
45
0
LINE
8
0
10
26
20
45
11
12
21
45
0
LINE
8
0
10
12
20
45
11
12
21
31
0
LINE
8
0
10
12
20
50
11
26
21
50
0
LINE
8
0
10
26
20
50
11
26
21
64
0
LINE
8
0
10
26
20
64
11
12
21
64
0
LINE
8
0
10
12
20
64
11
12
21
50
0
LINE
8
0
10
12
20
69
11
26
21
69
0
LINE
8
0
10
26
20
69
11
26
21
83
0
LINE
8
0
10
26
20
83
11
12
21
83
0
LINE
8
0
10
12
20
83
11
12
21
69
0
LINE
8
0
10
31
20
-7
11
45
21
-7
0
LINE
8
0
10
45
20
-7
11
45
21
7
0
LINE
8
0
10
45
20
7
11
31
21
7
0
LINE
8
0
10
31
20
7
11
31
21
-7
0
LINE
8
0
10
31
20
12
11
45
21
12
0
LINE
8
0
10
45
20
12
11
45
21
26
0
LINE
8
0
10
45
20
26
11
31
21
26
0
LINE
8
0
10
31
20
26
11
31
21
12
0
LINE
8
0
10
31
20
31
11
45
21
31
0
LINE
8
0
10
45
20
31
11
45
21
45
0
LINE
8
0
10
45
20
45
11
31
21
45
0
LINE
8
0
10
31
20
45
11
31
21
31
0
LINE
8
0
10
31
20
50
11
45
21
50
0
LINE
8
0
10
45
20
50
11
45
21
64
0
LINE
8
0
10
45
20
64
11
31
21
64
0
LINE
8
0
10
31
20
64
11
31
21
50
0
LINE
8
0
10
31
20
69
11
45
21
69
0
LINE
8
0
10
45
20
69
11
45
21
83
0
LINE
8
0
10
45
20
83
11
31
21
83
0
LINE
8
0
10
31
20
83
11
31
21
69
0
LINE
8
0
10
64
20
2.5
11
64
21
16.5
0
LINE
8
0
10
64
20
16.5
11
50
21
16.5
0
LINE
8
0
10
50
20
16.5
11
50
21
2.5
0
LINE
8
0
10
50
20
2.5
11
64
21
2.5
0
LINE
8
0
10
64
20
40.5
11
64
21
54.5
0
LINE
8
0
10
64
20
54.5
11
50
21
54.5
0
LINE
8
0
10
50
20
54.5
11
50
21
40.5
0
LINE
8
0
10
50
20
40.5
11
64
21
40.5
0
LINE
8
0
10
50
20
69
11
64
21
69
0
LINE
8
0
10
64
20
69
11
64
21
83
0
LINE
8
0
10
64
20
83
11
50
21
83
0
LINE
8
0
10
50
20
83
11
50
21
69
0
ENDSEC
0
EOF